<svg xmlns="http://www.w3.org/2000/svg" width="1080" height="400" viewBox="0 0 1080 400" role="img" aria-labelledby="svg-title"><title id="svg-title">Mithilesh Adhinarayanan — Rubik&#x27;s cube and mathematics</title><rect width="1080" height="400" rx="18" fill="#080b10"/><rect x="1" y="1" width="1078" height="398" rx="17" fill="none" stroke="#263241"/><text x="38" y="42" fill="#3dd6d0" font-family="monospace" font-size="12" font-weight="700">MITHILESH / 07</text><text x="38" y="105" fill="#f3f5f7" font-family="Arial, sans-serif" font-size="54" font-weight="700">Mithilesh</text><text x="40" y="139" fill="#aab6c4" font-family="monospace" font-size="19" font-weight="400">ADHINARAYANAN</text><text x="40" y="191" fill="#3dd6d0" font-family="monospace" font-size="22" font-weight="700">state  →  move  →  result</text><text x="40" y="226" fill="#aab6c4" font-family="Arial, sans-serif" font-size="14" font-weight="400">reinforcement learning · quant finance · applied ML</text><text x="40" y="272" fill="#f3f5f7" font-family="monospace" font-size="17" font-weight="400">π(a | s)     P(s&#x27; | s, a)     Σ error(t)</text><text x="40" y="303" fill="#f0d35a" font-family="monospace" font-size="15" font-weight="700">R U R′ U′</text><text x="151" y="303" fill="#aab6c4" font-family="Arial, sans-serif" font-size="12" font-weight="400">a four-move turn, rendered as a moving cube</text><path d="M40 336H1016" stroke="#263241"/><text x="40" y="366" fill="#aab6c4" font-family="monospace" font-size="11" font-weight="400">SASTRA UNIVERSITY  /  CSE · AI &amp; DS  /  2024–2028</text><text x="830" y="366" fill="#3dd6d0" font-family="monospace" font-size="11" font-weight="400">HOSUR, INDIA</text><g id="rubiks-cube"><animateTransform attributeName="transform" type="rotate" values="0 795 190;-2 795 190;2 795 190;0 795 190" dur="5.8s" repeatCount="indefinite"/><polygon points="653.3,192.3 706.7,192.3 706.7,245.7 653.3,245.7" fill="#ee5757" stroke="#080b10" stroke-width="2"/><polygon points="713.3,192.3 766.7,192.3 766.7,245.7 713.3,245.7" fill="#ee5757" stroke="#080b10" stroke-width="2"/><polygon points="773.3,192.3 826.7,192.3 826.7,245.7 773.3,245.7" fill="#f3f5f7" stroke="#080b10" stroke-width="2"/><polygon points="653.3,252.3 706.7,252.3 706.7,305.7 653.3,305.7" fill="#ee5757" stroke="#080b10" stroke-width="2"/><polygon points="713.3,252.3 766.7,252.3 766.7,305.7 713.3,305.7" fill="#ee5757" stroke="#080b10" stroke-width="2"/><polygon points="773.3,252.3 826.7,252.3 826.7,305.7 773.3,305.7" fill="#ee5757" stroke="#080b10" stroke-width="2"/><polygon points="832.0,191.3 864.6,175.0 864.6,228.4 832.0,244.7" fill="#4b83e8" stroke="#080b10" stroke-width="2"/><polygon points="868.7,173.0 901.3,156.6 901.3,210.0 868.7,226.4" fill="#4b83e8" stroke="#080b10" stroke-width="2"/><polygon points="905.4,154.6 938.0,138.3 938.0,191.7 905.4,208.0" fill="#4b83e8" stroke="#080b10" stroke-width="2"/><polygon points="832.0,251.3 864.6,235.0 864.6,288.4 832.0,304.7" fill="#4b83e8" stroke="#080b10" stroke-width="2"/><polygon points="868.7,233.0 901.3,216.6 901.3,270.0 868.7,286.4" fill="#4b83e8" stroke="#080b10" stroke-width="2"/><polygon points="905.4,214.6 938.0,198.3 938.0,251.7 905.4,268.0" fill="#4b83e8" stroke="#080b10" stroke-width="2"/><g id="turning-top"><animateTransform attributeName="transform" type="translate" values="0 0;8 -4;20 -7;8 -3;0 0" dur="4.8s" repeatCount="indefinite"/><animateTransform attributeName="transform" type="rotate" values="0 795 129;-4 795 129;-7 795 129;-2 795 129;0 795 129" dur="4.8s" repeatCount="indefinite" additive="sum"/><polygon points="653.3,132.3 706.7,132.3 706.7,185.7 653.3,185.7" fill="#f2a24c" stroke="#080b10" stroke-width="2"/><polygon points="713.3,132.3 766.7,132.3 766.7,185.7 713.3,185.7" fill="#ee5757" stroke="#080b10" stroke-width="2"/><polygon points="773.3,132.3 826.7,132.3 826.7,185.7 773.3,185.7" fill="#ee5757" stroke="#080b10" stroke-width="2"/><polygon points="832.0,131.3 864.6,115.0 864.6,168.4 832.0,184.7" fill="#4b83e8" stroke="#080b10" stroke-width="2"/><polygon points="868.7,113.0 901.3,96.6 901.3,150.0 868.7,166.4" fill="#4b83e8" stroke="#080b10" stroke-width="2"/><polygon points="905.4,94.6 938.0,78.3 938.0,131.7 905.4,148.0" fill="#55b87a" stroke="#080b10" stroke-width="2"/><polygon points="655.3,128.0 687.9,111.7 741.4,111.7 708.7,128.0" fill="#f0d35a" stroke="#080b10" stroke-width="2"/><polygon points="692.0,109.7 724.6,93.3 778.0,93.3 745.4,109.7" fill="#f0d35a" stroke="#080b10" stroke-width="2"/><polygon points="728.6,91.3 761.3,75.0 814.7,75.0 782.1,91.3" fill="#f3f5f7" stroke="#080b10" stroke-width="2"/><polygon points="715.3,128.0 747.9,111.7 801.4,111.7 768.7,128.0" fill="#f0d35a" stroke="#080b10" stroke-width="2"/><polygon points="752.0,109.7 784.6,93.3 838.0,93.3 805.4,109.7" fill="#f0d35a" stroke="#080b10" stroke-width="2"/><polygon points="788.6,91.3 821.3,75.0 874.7,75.0 842.1,91.3" fill="#f0d35a" stroke="#080b10" stroke-width="2"/><polygon points="775.3,128.0 808.0,111.7 861.3,111.7 828.7,128.0" fill="#f3f5f7" stroke="#080b10" stroke-width="2"/><polygon points="812.0,109.7 844.6,93.3 898.0,93.3 865.4,109.7" fill="#f0d35a" stroke="#080b10" stroke-width="2"/><polygon points="848.7,91.3 881.3,75.0 934.7,75.0 902.0,91.3" fill="#f0d35a" stroke="#080b10" stroke-width="2"/></g></g><path d="M530 334 C650 390 810 360 900 290" fill="none" stroke="#263241" stroke-width="2" stroke-dasharray="3 8"><animate attributeName="stroke-dashoffset" from="0" to="-44" dur="2.5s" repeatCount="indefinite"/></path><circle r="4" fill="#f0d35a"><animateMotion dur="4.5s" repeatCount="indefinite" path="M530 334 C650 390 810 360 900 290"/></circle></svg>